<svg width="21" height="21" viewBox="0 0 21 21" fill="none" xmlns="http://www.w3.org/2000/svg">
<path d="M17.4245 16.149L11.2621 10.1213L17.4245 4.09358C17.5859 3.93018 17.5859 3.67109 17.4245 3.50764C17.2591 3.34012 16.9862 3.33549 16.8149 3.49729L10.6525 9.52502L4.4902 3.49734C4.32316 3.3395 4.05827 3.3395 3.89117 3.49734C3.71991 3.65914 3.71518 3.92612 3.88059 4.09363L10.0429 10.1213L3.88059 16.149C3.79975 16.2281 3.75433 16.3353 3.75433 16.4471C3.75428 16.68 3.94733 16.8688 4.18542 16.8689C4.29979 16.869 4.40947 16.8245 4.4902 16.7453L10.6525 10.7176L16.8149 16.7453C16.8956 16.8246 17.0054 16.869 17.1197 16.8689C17.234 16.8688 17.3436 16.8245 17.4244 16.7454C17.5928 16.5808 17.5929 16.3137 17.4245 16.149Z" fill="black"/>
</svg>
